# xmcd CD database file
#
# Track frame offsets:
#	150
#	49060
#	75127
#	110025
#
# Disc length: 1855 seconds
#
# Revision: 0
# Processed by: cddbd v1.5.2PL0 Copyright (c) Steve Scherf et al.
# Submitted via: CDex 1.70beta2
#
DISCID=25073d04
DTITLE=Lionel Hampton - E His Orchestra In Europe
DYEAR=1995
DGENRE=Jazz
TTITLE0=Flying Home
TTITLE1=How High the Moon
TTITLE2=Mr. John
TTITLE3=Mr. 'J'
EXTD=YEAR: 1995
EXTT0=
EXTT1=
EXTT2=
EXTT3=
PLAYORDER=
